# 3ds Max Wavefront OBJ Exporter v0.97b - (c)2007 guruware
# File Created: 07.04.2016 16:43:34

#
# object Box002
#

v  -8.2206 0.7380 9.1448
v  -9.0879 0.7380 8.2762
v  8.3348 0.7380 -9.1226
v  9.2022 0.7380 -8.2541
v  -8.2206 1.9221 9.1448
v  9.2022 1.9221 -8.2541
v  8.3348 1.9221 -9.1226
v  -9.0879 1.9221 8.2762
# 8 vertices

vn 0.0000 -1.0000 -0.0000
vn 0.0000 1.0000 -0.0000
vn 0.7066 0.0000 0.7076
vn 0.7076 0.0000 -0.7066
vn -0.7066 0.0000 -0.7076
vn -0.7076 0.0000 0.7066
# 6 vertex normals

vt 1.0000 0.0000 0.0000
vt 1.0000 1.0000 0.0000
vt 0.0000 1.0000 0.0000
vt 0.0000 0.0000 0.0000
# 4 texture coords

g Box002
s 2
f 1/1/1 2/2/1 3/3/1 
f 3/3/1 4/4/1 1/1/1 
s 4
f 5/4/2 6/1/2 7/2/2 
f 7/2/2 8/3/2 5/4/2 
s 8
f 1/4/3 4/1/3 6/2/3 
f 6/2/3 5/3/3 1/4/3 
s 16
f 4/4/4 3/1/4 7/2/4 
f 7/2/4 6/3/4 4/4/4 
s 32
f 3/4/5 2/1/5 8/2/5 
f 8/2/5 7/3/5 3/4/5 
s 64
f 2/4/6 1/1/6 5/2/6 
f 5/2/6 8/3/6 2/4/6 
# 12 faces

#
# object Box007
#

v  9.3206 1.3041 -8.2583
v  9.3154 2.1727 -9.1257
v  9.3427 19.5715 8.2971
v  9.3479 18.7029 9.1645
v  8.1365 1.3015 -8.2538
v  8.1638 18.7003 9.1690
v  8.1587 19.5689 8.3016
v  8.1314 2.1701 -9.1212
# 8 vertices

vn 1.0000 0.0022 -0.0038
vn -1.0000 -0.0022 0.0038
vn 0.0042 -0.7076 0.7066
vn 0.0011 0.7066 0.7076
vn -0.0042 0.7076 -0.7066
vn -0.0011 -0.7066 -0.7076
# 6 vertex normals

vt 1.0000 0.0000 0.0000
vt 1.0000 1.0000 0.0000
vt 0.0000 1.0000 0.0000
vt 0.0000 0.0000 0.0000
# 4 texture coords

g Box007
s 2
f 9/5/7 10/6/7 11/7/7 
f 11/7/7 12/8/7 9/5/7 
s 4
f 13/8/8 14/5/8 15/6/8 
f 15/6/8 16/7/8 13/8/8 
s 8
f 9/8/9 12/5/9 14/6/9 
f 14/6/9 13/7/9 9/8/9 
s 16
f 12/8/10 11/5/10 15/6/10 
f 15/6/10 14/7/10 12/8/10 
s 32
f 11/8/11 10/5/11 16/6/11 
f 16/6/11 15/7/11 11/8/11 
s 64
f 10/8/12 9/5/12 13/6/12 
f 13/6/12 16/7/12 10/8/12 
# 12 faces

#
# object Box004
#

v  -7.9465 1.3041 8.2327
v  -8.8139 2.1727 8.2346
v  8.6088 19.5715 8.2730
v  9.4762 18.7029 8.2710
v  -7.9465 1.3015 9.4168
v  9.4762 18.7003 9.4551
v  8.6088 19.5689 9.4570
v  -8.8139 2.1701 9.4187
# 8 vertices

vn 0.0000 0.0022 -1.0000
vn -0.0000 -0.0022 1.0000
vn 0.7066 -0.7076 -0.0016
vn 0.7076 0.7066 0.0016
vn -0.7066 0.7076 0.0016
vn -0.7076 -0.7066 -0.0016
# 6 vertex normals

vt 1.0000 0.0000 0.0000
vt 1.0000 1.0000 0.0000
vt 0.0000 1.0000 0.0000
vt 0.0000 0.0000 0.0000
# 4 texture coords

g Box004
s 2
f 17/9/13 18/10/13 19/11/13 
f 19/11/13 20/12/13 17/9/13 
s 4
f 21/12/14 22/9/14 23/10/14 
f 23/10/14 24/11/14 21/12/14 
s 8
f 17/12/15 20/9/15 22/10/15 
f 22/10/15 21/11/15 17/12/15 
s 16
f 20/12/16 19/9/16 23/10/16 
f 23/10/16 22/11/16 20/12/16 
s 32
f 19/12/17 18/9/17 24/10/17 
f 24/10/17 23/11/17 19/12/17 
s 64
f 18/12/18 17/9/18 21/10/18 
f 21/10/18 24/11/18 18/12/18 
# 12 faces

#
# object Box003
#

v  -8.2206 18.6309 9.1448
v  -9.0879 18.6309 8.2762
v  8.3348 18.6309 -9.1226
v  9.2022 18.6309 -8.2541
v  -8.2206 19.8150 9.1448
v  9.2022 19.8150 -8.2541
v  8.3348 19.8150 -9.1226
v  -9.0879 19.8150 8.2762
# 8 vertices

vn 0.0000 -1.0000 -0.0000
vn 0.0000 1.0000 -0.0000
vn 0.7066 0.0000 0.7076
vn 0.7076 0.0000 -0.7066
vn -0.7066 0.0000 -0.7076
vn -0.7076 0.0000 0.7066
# 6 vertex normals

vt 1.0000 0.0000 0.0000
vt 1.0000 1.0000 0.0000
vt 0.0000 1.0000 0.0000
vt 0.0000 0.0000 0.0000
# 4 texture coords

g Box003
s 2
f 25/13/19 26/14/19 27/15/19 
f 27/15/19 28/16/19 25/13/19 
s 4
f 29/16/20 30/13/20 31/14/20 
f 31/14/20 32/15/20 29/16/20 
s 8
f 25/16/21 28/13/21 30/14/21 
f 30/14/21 29/15/21 25/16/21 
s 16
f 28/16/22 27/13/22 31/14/22 
f 31/14/22 30/15/22 28/16/22 
s 32
f 27/16/23 26/13/23 32/14/23 
f 32/14/23 31/15/23 27/16/23 
s 64
f 26/16/24 25/13/24 29/14/24 
f 29/14/24 32/15/24 26/16/24 
# 12 faces

#
# object Box001
#

v  -9.8693 0.3548 9.9537
v  -9.8693 0.3548 4.9714
v  -7.1612 0.3548 7.2455
v  -4.8871 0.3548 9.9537
v  0.0759 0.3548 7.4094
v  0.0952 0.3548 9.9537
v  7.4770 0.3548 7.4094
v  5.0775 0.3548 9.9537
v  10.0598 0.3548 4.9714
v  10.0598 0.3548 9.9537
v  -9.8693 0.3548 -0.0109
v  -7.3251 0.3548 0.0084
v  -7.1612 1.9101 7.2455
v  -7.3251 1.9101 0.0084
v  0.0759 1.9101 0.0084
v  0.0759 1.9101 7.4094
v  7.4770 1.9101 0.0084
v  7.4770 1.9101 7.4094
v  7.4770 0.3548 0.0084
v  10.0598 0.3548 -0.0109
v  -9.8693 0.3548 -4.9932
v  -7.3251 0.3548 -7.3926
v  -7.3251 1.9101 -7.3926
v  0.0759 1.9101 -7.3926
v  7.4770 1.9101 -7.3926
v  7.4770 0.3548 -7.3926
v  10.0598 0.3548 -4.9932
v  -9.8693 0.3548 -9.9755
v  -4.8871 0.3548 -9.9755
v  0.0952 0.3548 -9.9755
v  0.0759 0.3548 -7.3926
v  5.0775 0.3548 -9.9755
v  10.0598 0.3548 -9.9755
v  -9.8693 20.2841 9.9537
v  -4.8871 20.2841 9.9537
v  -7.3058 20.2841 7.3902
v  -9.8693 20.2841 4.9714
v  0.0952 20.2841 9.9537
v  0.0952 20.2841 7.3902
v  5.0775 20.2841 9.9537
v  7.4963 20.2841 7.3902
v  10.0598 20.2841 9.9537
v  10.0598 20.2841 4.9714
v  -7.3058 20.2841 -0.0109
v  -9.8693 20.2841 -0.0109
v  -7.3058 19.2074 7.3902
v  0.0952 19.2074 7.3902
v  0.0952 19.2074 -0.0109
v  -7.3058 19.2074 -0.0109
v  7.4963 19.2074 7.3902
v  7.4963 19.2074 -0.0109
v  10.0598 20.2841 -0.0109
v  7.4963 20.2841 -0.0109
v  -7.3058 20.2841 -7.4119
v  -9.8693 20.2841 -4.9932
v  0.0952 19.2074 -7.4119
v  -7.3058 19.2074 -7.4119
v  7.4963 19.2074 -7.4119
v  10.0598 20.2841 -4.9932
v  7.4963 20.2841 -7.4119
v  -4.8871 20.2841 -9.9755
v  -9.8693 20.2841 -9.9755
v  0.0952 20.2841 -7.4119
v  0.0952 20.2841 -9.9755
v  5.0775 20.2841 -9.9755
v  10.0598 20.2841 -9.9755
v  -7.4503 2.7520 9.9537
v  0.0952 2.7520 9.9537
v  7.6407 2.7520 9.9537
v  10.0598 5.3371 9.9537
v  -9.8693 5.3371 9.9537
v  -7.4503 10.3195 9.9537
v  -9.8693 10.3195 9.9537
v  -7.4503 2.7520 8.4904
v  0.0952 2.7520 8.4904
v  0.0952 10.3195 8.4904
v  -7.4503 10.3195 8.4904
v  7.6407 2.7520 8.4904
v  7.6407 10.3195 8.4904
v  10.0598 10.3195 9.9537
v  7.6407 10.3195 9.9537
v  -7.4503 17.8869 9.9537
v  -9.8693 15.3018 9.9537
v  0.0952 17.8869 8.4904
v  -7.4503 17.8869 8.4904
v  7.6407 17.8869 8.4904
v  10.0598 15.3018 9.9537
v  7.6407 17.8869 9.9537
v  0.0952 17.8869 9.9537
v  10.0598 2.7520 7.5565
v  10.0598 2.7520 -0.0109
v  10.0598 2.7520 -7.5783
v  10.0598 5.3371 -9.9755
v  10.0598 10.3195 7.5565
v  8.6242 2.7520 7.5565
v  8.6242 2.7520 -0.0109
v  8.6242 10.3195 -0.0109
v  8.6242 10.3195 7.5565
v  8.6242 2.7520 -7.5783
v  8.6242 10.3195 -7.5783
v  10.0598 10.3195 -9.9755
v  10.0598 10.3195 -7.5783
v  10.0598 17.8869 7.5565
v  8.6242 17.8869 -0.0109
v  8.6242 17.8869 7.5565
v  8.6242 17.8869 -7.5783
v  10.0598 15.3018 -9.9755
v  10.0598 17.8869 -7.5783
v  10.0598 17.8869 -0.0109
v  7.6407 2.7520 -9.9755
v  0.0952 2.7520 -9.9755
v  -7.4503 2.7520 -9.9755
v  -9.8693 5.3371 -9.9755
v  7.6407 10.3195 -9.9755
v  7.6407 2.7520 -8.4202
v  0.0952 2.7520 -8.4202
v  0.0952 10.3195 -8.4202
v  7.6407 10.3195 -8.4202
v  -7.4503 2.7520 -8.4202
v  -7.4503 10.3195 -8.4202
v  -9.8693 10.3195 -9.9755
v  -7.4503 10.3195 -9.9755
v  7.6407 17.8869 -9.9755
v  0.0952 17.8869 -8.4202
v  7.6407 17.8869 -8.4202
v  -7.4503 17.8869 -8.4202
v  -9.8693 15.3018 -9.9755
v  -7.4503 17.8869 -9.9755
v  0.0952 17.8869 -9.9755
v  -9.8693 2.7520 -7.5783
v  -9.8693 2.7520 -0.0109
v  -9.8693 2.7520 7.5565
v  -9.8693 10.3195 -7.5783
v  -8.4574 2.7520 -7.5783
v  -8.4574 2.7520 -0.0109
v  -8.4574 10.3195 -0.0109
v  -8.4574 10.3195 -7.5783
v  -8.4574 2.7520 7.5565
v  -8.4574 10.3195 7.5565
v  -9.8693 10.3195 7.5565
v  -9.8693 17.8869 -7.5783
v  -8.4574 17.8869 -0.0109
v  -8.4574 17.8869 -7.5783
v  -8.4574 17.8869 7.5565
v  -9.8693 17.8869 7.5565
v  -9.8693 17.8869 -0.0109
# 146 vertices

vn 0.0000 -1.0000 -0.0000
vn 0.0000 1.0000 -0.0000
vn 0.0000 0.0000 1.0000
vn -0.0000 0.0000 1.0000
vn 0.0000 -0.0000 1.0000
vn -0.0000 -0.0000 1.0000
vn 1.0000 0.0000 -0.0000
vn -0.0000 0.0000 -1.0000
vn 0.0000 0.0000 -1.0000
vn -0.0000 -0.0000 -1.0000
vn 0.0000 -0.0000 -1.0000
vn -1.0000 0.0000 -0.0000
vn 0.0226 0.0000 -0.9997
vn 0.9997 0.0000 -0.0226
# 14 vertex normals

vt 1.0000 0.0000 0.0000
vt 1.0000 10.0437 0.0000
vt -9.0437 10.0437 0.0000
vt -9.0437 0.0000 0.0000
vt -19.0873 10.0437 0.0000
vt -19.0873 0.0000 0.0000
vt -29.1310 10.0437 0.0000
vt -29.1310 0.0000 0.0000
vt -39.1747 10.0437 0.0000
vt -39.1747 0.0000 0.0000
vt 1.0000 20.0873 0.0000
vt -9.0437 20.0873 0.0000
vt -19.0873 20.0873 0.0000
vt -29.1310 20.0873 0.0000
vt -39.1747 20.0873 0.0000
vt 1.0000 30.1310 0.0000
vt -9.0437 30.1310 0.0000
vt -19.0873 30.1310 0.0000
vt -29.1310 30.1310 0.0000
vt -39.1747 30.1310 0.0000
vt 1.0000 40.1747 0.0000
vt -9.0437 40.1747 0.0000
vt -19.0873 40.1747 0.0000
vt -29.1310 40.1747 0.0000
vt -39.1747 40.1747 0.0000
vt 0.0000 0.0000 0.0000
vt 10.0437 0.0000 0.0000
vt 10.0437 10.0437 0.0000
vt 0.0000 10.0437 0.0000
vt 20.0873 0.0000 0.0000
vt 20.0873 10.0437 0.0000
vt 30.1310 0.0000 0.0000
vt 30.1310 10.0437 0.0000
vt 40.1747 0.0000 0.0000
vt 40.1747 10.0437 0.0000
vt 10.0437 20.0873 0.0000
vt 0.0000 20.0873 0.0000
vt 20.0873 20.0873 0.0000
vt 30.1310 20.0873 0.0000
vt 40.1747 20.0873 0.0000
vt 10.0437 30.1310 0.0000
vt 0.0000 30.1310 0.0000
vt 20.0873 30.1310 0.0000
vt 30.1310 30.1310 0.0000
vt 40.1747 30.1310 0.0000
vt 10.0437 40.1747 0.0000
vt 0.0000 40.1747 0.0000
vt 20.0873 40.1747 0.0000
vt 30.1310 40.1747 0.0000
vt 40.1747 40.1747 0.0000
vt 10.0437 20.0875 0.0000
vt 0.0000 20.0875 0.0000
vt 20.0873 20.0875 0.0000
vt 30.1310 20.0875 0.0000
vt 40.1747 20.0875 0.0000
vt 10.0437 30.1312 0.0000
vt 0.0000 30.1312 0.0000
vt 20.0873 30.1312 0.0000
vt 30.1310 30.1312 0.0000
vt 40.1747 30.1312 0.0000
vt 0.0000 40.1750 0.0000
vt 20.0873 40.1750 0.0000
vt 10.0437 40.1750 0.0000
vt 30.1310 40.1750 0.0000
vt 40.1747 40.1750 0.0000
# 65 texture coords

g Box001
s 2
f 33/17/25 34/18/25 35/19/25 
f 35/19/25 36/20/25 33/17/25 
f 36/20/25 35/19/25 37/21/25 
f 37/21/25 38/22/25 36/20/25 
f 38/22/25 37/21/25 39/23/25 
f 39/23/25 40/24/25 38/22/25 
f 40/24/25 39/23/25 41/25/25 
f 41/25/25 42/26/25 40/24/25 
f 34/18/25 43/27/25 44/28/25 
f 44/28/25 35/19/25 34/18/25 
f 45/19/25 46/28/25 47/29/25 
f 47/29/25 48/21/25 45/19/25 
f 48/21/25 47/29/25 49/30/25 
f 49/30/25 50/23/25 48/21/25 
f 39/23/25 51/30/25 52/31/25 
f 52/31/25 41/25/25 39/23/25 
f 43/27/25 53/32/25 54/33/25 
f 54/33/25 44/28/25 43/27/25 
f 46/28/25 55/33/25 56/34/25 
f 56/34/25 47/29/25 46/28/25 
f 47/29/25 56/34/25 57/35/25 
f 57/35/25 49/30/25 47/29/25 
f 51/30/25 58/35/25 59/36/25 
f 59/36/25 52/31/25 51/30/25 
f 53/32/25 60/37/25 61/38/25 
f 61/38/25 54/33/25 53/32/25 
f 54/33/25 61/38/25 62/39/25 
f 62/39/25 63/34/25 54/33/25 
f 63/34/25 62/39/25 64/40/25 
f 64/40/25 58/35/25 63/34/25 
f 58/35/25 64/40/25 65/41/25 
f 65/41/25 59/36/25 58/35/25 
s 4
f 66/42/26 67/43/26 68/44/26 
f 68/44/26 69/45/26 66/42/26 
f 67/43/26 70/46/26 71/47/26 
f 71/47/26 68/44/26 67/43/26 
f 70/46/26 72/48/26 73/49/26 
f 73/49/26 71/47/26 70/46/26 
f 72/48/26 74/50/26 75/51/26 
f 75/51/26 73/49/26 72/48/26 
f 69/45/26 68/44/26 76/52/26 
f 76/52/26 77/53/26 69/45/26 
f 78/44/26 79/47/26 80/54/26 
f 80/54/26 81/52/26 78/44/26 
f 79/47/26 82/49/26 83/55/26 
f 83/55/26 80/54/26 79/47/26 
f 73/49/26 75/51/26 84/56/26 
f 84/56/26 85/55/26 73/49/26 
f 77/53/26 76/52/26 86/57/26 
f 86/57/26 87/58/26 77/53/26 
f 81/52/26 80/54/26 88/59/26 
f 88/59/26 89/57/26 81/52/26 
f 80/54/26 83/55/26 90/60/26 
f 90/60/26 88/59/26 80/54/26 
f 85/55/26 84/56/26 91/61/26 
f 91/61/26 92/60/26 85/55/26 
f 87/58/26 86/57/26 93/62/26 
f 93/62/26 94/63/26 87/58/26 
f 86/57/26 95/59/26 96/64/26 
f 96/64/26 93/62/26 86/57/26 
f 95/59/26 92/60/26 97/65/26 
f 97/65/26 96/64/26 95/59/26 
f 92/60/26 91/61/26 98/66/26 
f 98/66/26 97/65/26 92/60/26 
s 8
f 33/42/27 36/43/27 99/44/27 
f 36/43/27 38/46/27 100/47/27 
f 100/47/27 99/44/27 36/43/27 
f 38/46/27 40/48/27 101/49/28 
f 101/49/28 100/47/27 38/46/27 
f 42/50/28 102/51/28 101/49/28 
f 103/45/27 99/44/27 104/67/27 
f 104/67/27 105/68/27 103/45/27 
f 106/44/27 107/47/27 108/69/27 
f 108/69/27 109/67/27 106/44/27 
f 107/47/27 110/49/27 111/70/27 
f 111/70/27 108/69/27 107/47/27 
f 101/49/28 102/51/28 112/71/28 
f 112/71/28 113/70/28 101/49/28 
f 105/68/27 104/67/27 114/72/29 
f 114/72/29 115/73/27 105/68/27 
f 109/67/27 108/69/27 116/74/27 
f 116/74/27 117/72/27 109/67/27 
f 108/69/27 111/70/27 118/75/27 
f 118/75/27 116/74/27 108/69/27 
f 113/70/28 112/71/28 119/76/28 
f 119/76/28 120/75/30 113/70/28 
f 115/73/27 114/72/29 66/77/29 
f 114/72/29 121/74/29 70/78/29 
f 70/78/29 67/79/29 114/72/29 
f 121/74/29 120/75/30 72/80/29 
f 72/80/29 70/78/29 121/74/29 
f 120/75/30 74/81/30 72/80/29 
s 16
f 42/42/31 41/43/31 122/44/31 
f 41/43/31 52/46/31 123/47/31 
f 123/47/31 122/44/31 41/43/31 
f 52/46/31 59/48/31 124/49/31 
f 124/49/31 123/47/31 52/46/31 
f 65/50/31 125/51/31 124/49/31 
f 102/45/31 122/44/31 126/67/31 
f 126/67/31 112/68/31 102/45/31 
f 127/44/31 128/47/31 129/69/31 
f 129/69/31 130/67/31 127/44/31 
f 128/47/31 131/49/31 132/70/31 
f 132/70/31 129/69/31 128/47/31 
f 124/49/31 125/51/31 133/71/31 
f 133/71/31 134/70/31 124/49/31 
f 112/68/31 126/67/31 135/72/31 
f 135/72/31 119/73/31 112/68/31 
f 130/67/31 129/69/31 136/74/31 
f 136/74/31 137/72/31 130/67/31 
f 129/69/31 132/70/31 138/75/31 
f 138/75/31 136/74/31 129/69/31 
f 134/70/31 133/71/31 139/76/31 
f 139/76/31 140/75/31 134/70/31 
f 119/73/31 135/72/31 74/77/31 
f 135/72/31 141/74/31 84/78/31 
f 84/78/31 75/79/31 135/72/31 
f 141/74/31 140/75/31 91/80/31 
f 91/80/31 84/78/31 141/74/31 
f 140/75/31 98/81/31 91/80/31 
s 32
f 65/42/32 64/43/33 142/44/32 
f 64/43/33 62/46/33 143/47/33 
f 143/47/33 142/44/32 64/43/33 
f 62/46/33 61/48/33 144/49/33 
f 144/49/33 143/47/33 62/46/33 
f 60/50/33 145/51/33 144/49/33 
f 125/45/32 142/44/32 146/67/32 
f 146/67/32 133/68/32 125/45/32 
f 147/44/33 148/47/33 149/69/33 
f 149/69/33 150/67/33 147/44/33 
f 148/47/33 151/49/33 152/70/33 
f 152/70/33 149/69/33 148/47/33 
f 144/49/33 145/51/33 153/71/33 
f 153/71/33 154/70/33 144/49/33 
f 133/68/32 146/67/32 155/72/34 
f 155/72/34 139/73/32 133/68/32 
f 150/67/33 149/69/33 156/74/33 
f 156/74/33 157/72/33 150/67/33 
f 149/69/33 152/70/33 158/75/33 
f 158/75/33 156/74/33 149/69/33 
f 154/70/33 153/71/33 159/76/33 
f 159/76/33 160/75/35 154/70/33 
f 139/73/32 155/72/34 98/77/34 
f 155/72/34 161/74/35 96/78/35 
f 96/78/35 97/79/35 155/72/34 
f 161/74/35 160/75/35 93/80/35 
f 93/80/35 96/78/35 161/74/35 
f 160/75/35 94/81/35 93/80/35 
s 64
f 60/42/36 53/43/36 162/44/36 
f 53/43/36 43/46/36 163/47/36 
f 163/47/36 162/44/36 53/43/36 
f 43/46/36 34/48/36 164/49/36 
f 164/49/36 163/47/36 43/46/36 
f 33/50/36 103/51/36 164/49/36 
f 145/45/36 162/44/36 165/67/36 
f 165/67/36 153/68/36 145/45/36 
f 166/44/36 167/47/36 168/69/36 
f 168/69/36 169/67/36 166/44/36 
f 167/47/36 170/49/36 171/70/36 
f 171/70/36 168/69/36 167/47/36 
f 164/49/36 103/51/36 105/71/36 
f 105/71/36 172/70/36 164/49/36 
f 153/68/36 165/67/36 173/72/36 
f 173/72/36 159/73/36 153/68/36 
f 169/67/36 168/69/36 174/74/36 
f 174/74/36 175/72/36 169/67/36 
f 168/69/36 171/70/36 176/75/36 
f 176/75/36 174/74/36 168/69/36 
f 172/70/36 105/71/36 115/76/36 
f 115/76/36 177/75/36 172/70/36 
f 159/73/36 173/72/36 94/77/36 
f 173/72/36 178/74/36 77/78/36 
f 77/78/36 87/79/36 173/72/36 
f 178/74/36 177/75/36 69/80/36 
f 69/80/36 77/78/36 178/74/36 
f 177/75/36 66/81/36 69/80/36 
s off
f 99/44/26 100/47/26 107/47/26 
f 107/47/26 106/44/26 99/44/26 
f 100/47/26 101/49/26 110/49/26 
f 110/49/26 107/47/26 100/47/26 
f 101/49/36 113/70/36 111/70/36 
f 111/70/36 110/49/36 101/49/36 
f 113/70/36 120/75/36 118/75/36 
f 118/75/36 111/70/36 113/70/36 
f 120/75/25 121/74/25 116/74/25 
f 116/74/25 118/75/25 120/75/25 
f 121/74/25 114/72/25 117/72/25 
f 117/72/25 116/74/25 121/74/25 
f 114/72/31 104/67/31 109/67/31 
f 109/67/31 117/72/31 114/72/31 
f 104/67/31 99/44/31 106/44/31 
f 106/44/31 109/67/31 104/67/31 
f 68/44/33 71/47/33 79/47/33 
f 79/47/33 78/44/33 68/44/33 
f 71/47/33 73/49/33 82/49/33 
f 82/49/33 79/47/33 71/47/33 
f 73/49/36 85/55/36 83/55/36 
f 83/55/36 82/49/36 73/49/36 
f 85/55/36 92/60/36 90/60/36 
f 90/60/36 83/55/36 85/55/36 
f 92/60/27 95/59/27 88/59/27 
f 88/59/27 90/60/27 92/60/27 
f 95/59/27 86/57/27 89/57/27 
f 89/57/27 88/59/27 95/59/27 
f 86/57/31 76/52/31 81/52/31 
f 81/52/31 89/57/31 86/57/31 
f 76/52/31 68/44/31 78/44/31 
f 78/44/31 81/52/31 76/52/31 
f 162/44/26 163/47/26 167/47/26 
f 167/47/26 166/44/26 162/44/26 
f 163/47/26 164/49/26 170/49/26 
f 170/49/26 167/47/26 163/47/26 
f 164/49/33 172/70/33 171/70/33 
f 171/70/33 170/49/33 164/49/33 
f 172/70/33 177/75/33 176/75/33 
f 176/75/33 171/70/33 172/70/33 
f 177/75/25 178/74/25 174/74/25 
f 174/74/25 176/75/25 177/75/25 
f 178/74/25 173/72/25 175/72/25 
f 175/72/25 174/74/25 178/74/25 
f 173/72/27 165/67/27 169/67/27 
f 169/67/27 175/72/27 173/72/27 
f 165/67/27 162/44/27 166/44/27 
f 166/44/27 169/67/27 165/67/27 
f 142/44/26 143/47/26 148/47/26 
f 148/47/26 147/44/26 142/44/26 
f 143/47/26 144/49/26 151/49/26 
f 151/49/26 148/47/26 143/47/26 
f 144/49/31 154/70/31 152/70/31 
f 152/70/31 151/49/31 144/49/31 
f 154/70/31 160/75/31 158/75/31 
f 158/75/31 152/70/31 154/70/31 
f 160/75/25 161/74/25 156/74/25 
f 156/74/25 158/75/25 160/75/25 
f 161/74/25 155/72/25 157/72/25 
f 157/72/25 156/74/25 161/74/25 
f 155/72/36 146/67/36 150/67/36 
f 150/67/36 157/72/36 155/72/36 
f 146/67/36 142/44/36 147/44/36 
f 147/44/36 150/67/36 146/67/36 
f 122/44/26 123/47/26 128/47/26 
f 128/47/26 127/44/26 122/44/26 
f 123/47/26 124/49/26 131/49/26 
f 131/49/26 128/47/26 123/47/26 
f 124/49/27 134/70/27 132/70/27 
f 132/70/27 131/49/27 124/49/27 
f 134/70/27 140/75/27 138/75/27 
f 138/75/27 132/70/27 134/70/27 
f 140/75/25 141/74/25 136/74/25 
f 136/74/25 138/75/25 140/75/25 
f 141/74/25 135/72/25 137/72/25 
f 137/72/25 136/74/25 141/74/25 
f 135/72/33 126/67/33 130/67/33 
f 130/67/33 137/72/33 135/72/33 
f 126/67/33 122/44/33 127/44/33 
f 127/44/33 130/67/33 126/67/33 
f 37/21/37 35/19/37 45/19/37 
f 45/19/37 48/21/37 37/21/37 
f 35/19/38 44/28/38 46/28/38 
f 46/28/38 45/19/38 35/19/38 
f 44/28/31 54/33/31 55/33/31 
f 55/33/31 46/28/31 44/28/31 
f 54/33/27 63/34/27 56/34/27 
f 56/34/27 55/33/27 54/33/27 
f 63/34/27 58/35/27 57/35/27 
f 57/35/27 56/34/27 63/34/27 
f 58/35/36 51/30/36 49/30/36 
f 49/30/36 57/35/36 58/35/36 
f 51/30/36 39/23/36 50/23/36 
f 50/23/36 49/30/36 51/30/36 
f 39/23/33 37/21/33 48/21/33 
f 48/21/33 50/23/33 39/23/33 
s 8
f 99/44/27 103/45/27 33/42/27 
f 101/49/28 40/48/27 42/50/28 
f 114/72/29 67/79/29 66/77/29 
f 120/75/30 119/76/28 74/81/30 
s 16
f 122/44/31 102/45/31 42/42/31 
f 124/49/31 59/48/31 65/50/31 
f 135/72/31 75/79/31 74/77/31 
f 140/75/31 139/76/31 98/81/31 
s 32
f 142/44/32 125/45/32 65/42/32 
f 144/49/33 61/48/33 60/50/33 
f 155/72/34 97/79/35 98/77/34 
f 160/75/35 159/76/33 94/81/35 
s 64
f 162/44/36 145/45/36 60/42/36 
f 164/49/36 34/48/36 33/50/36 
f 173/72/36 87/79/36 94/77/36 
f 177/75/36 115/76/36 66/81/36 
# 288 faces

#
# object Box005
#

v  -7.9465 1.3041 -9.1500
v  -8.8139 2.1727 -9.1481
v  8.6088 19.5715 -9.1098
v  9.4762 18.7029 -9.1117
v  -7.9465 1.3015 -7.9659
v  9.4762 18.7003 -7.9276
v  8.6088 19.5689 -7.9257
v  -8.8139 2.1701 -7.9640
# 8 vertices

vn 0.0000 0.0022 -1.0000
vn -0.0000 -0.0022 1.0000
vn 0.7066 -0.7076 -0.0016
vn 0.7076 0.7066 0.0016
vn -0.7066 0.7076 0.0016
vn -0.7076 -0.7066 -0.0016
# 6 vertex normals

vt 1.0000 0.0000 0.0000
vt 1.0000 1.0000 0.0000
vt 0.0000 1.0000 0.0000
vt 0.0000 0.0000 0.0000
# 4 texture coords

g Box005
s 2
f 179/82/39 180/83/39 181/84/39 
f 181/84/39 182/85/39 179/82/39 
s 4
f 183/85/40 184/82/40 185/83/40 
f 185/83/40 186/84/40 183/85/40 
s 8
f 179/85/41 182/82/41 184/83/41 
f 184/83/41 183/84/41 179/85/41 
s 16
f 182/85/42 181/82/42 185/83/42 
f 185/83/42 184/84/42 182/85/42 
s 32
f 181/85/43 180/82/43 186/83/43 
f 186/83/43 185/84/43 181/85/43 
s 64
f 180/85/44 179/82/44 183/83/44 
f 183/83/44 186/84/44 180/85/44 
# 12 faces

#
# object Box006
#

v  -7.8407 1.3041 -8.2583
v  -7.8459 2.1727 -9.1257
v  -7.8186 19.5715 8.2971
v  -7.8134 18.7029 9.1645
v  -9.0248 1.3015 -8.2538
v  -8.9975 18.7003 9.1690
v  -9.0026 19.5689 8.3016
v  -9.0300 2.1701 -9.1212
# 8 vertices

vn 1.0000 0.0022 -0.0038
vn -1.0000 -0.0022 0.0038
vn 0.0042 -0.7076 0.7066
vn 0.0011 0.7066 0.7076
vn -0.0042 0.7076 -0.7066
vn -0.0011 -0.7066 -0.7076
# 6 vertex normals

vt 1.0000 0.0000 0.0000
vt 1.0000 1.0000 0.0000
vt 0.0000 1.0000 0.0000
vt 0.0000 0.0000 0.0000
# 4 texture coords

g Box006
s 2
f 187/86/45 188/87/45 189/88/45 
f 189/88/45 190/89/45 187/86/45 
s 4
f 191/89/46 192/86/46 193/87/46 
f 193/87/46 194/88/46 191/89/46 
s 8
f 187/89/47 190/86/47 192/87/47 
f 192/87/47 191/88/47 187/89/47 
s 16
f 190/89/48 189/86/48 193/87/48 
f 193/87/48 192/88/48 190/89/48 
s 32
f 189/89/49 188/86/49 194/87/49 
f 194/87/49 193/88/49 189/89/49 
s 64
f 188/89/50 187/86/50 191/87/50 
f 191/87/50 194/88/50 188/89/50 
# 12 faces

