# 3ds Max Wavefront OBJ Exporter v0.97b - (c)2007 guruware
# File Created: 07.04.2016 16:31:08

#
# object ChamferBox001
#

v  -11.3297 7.0099 11.7417
v  -11.3297 7.0099 -7.5352
v  -11.6519 6.4285 -7.2136
v  -11.7674 6.2201 11.7417
v  -11.3297 6.2201 12.1794
v  9.9412 6.2201 12.1794
v  9.9412 7.0099 11.7417
v  10.3789 6.2201 11.7417
v  10.3789 6.2201 -9.5292
v  9.9412 7.0099 -9.5292
v  9.9412 6.2201 -9.9669
v  -11.7674 6.2101 11.7417
v  -11.7674 6.2151 -7.0984
v  -11.3297 6.2101 12.1794
v  9.9412 6.2101 12.1794
v  10.3789 6.2101 11.7417
v  10.3789 6.2101 -9.5292
v  9.9412 6.2101 -9.9669
v  -11.3297 5.4204 11.7417
v  -11.3297 5.4204 -7.5352
v  9.9412 5.4204 11.7417
v  9.9412 5.4204 -9.5292
v  -9.3320 5.4204 -9.5292
v  -8.8936 6.2151 -9.9669
v  -9.9405 5.4204 -8.9219
v  -9.9405 7.0099 -8.9219
v  -9.3320 7.0099 -9.5292
v  -9.0093 6.4285 -9.8514
v  -9.9405 6.4285 -8.9219
v  -5.8510 7.0099 -9.5292
v  -5.6192 6.5916 -9.7610
v  -3.6927 6.5916 -9.7608
v  7.5178 7.0099 -9.5292
v  7.4758 6.9343 -9.5711
v  -5.8510 7.0099 -4.6250
v  -5.6192 7.0099 -4.3932
v  7.2860 7.0099 -4.3932
v  7.5178 7.0099 -4.6250
v  7.2860 6.5916 -9.7609
v  -5.6192 6.5916 -4.6250
v  7.2860 6.5916 -4.6250
# 41 vertices

vn -0.3416 0.8756 0.3416
vn -0.2177 0.9760 -0.0000
vn -0.7097 0.7045 0.0001
vn -0.8756 0.3416 0.3416
vn -0.3416 0.3416 0.8756
vn 0.3416 0.3416 0.8756
vn 0.3416 0.8756 0.3416
vn 0.8756 0.3416 0.3416
vn 0.8756 0.3416 -0.3416
vn 0.3416 0.8756 -0.3416
vn 0.3416 0.3416 -0.8756
vn -0.8756 -0.3416 0.3416
vn -1.0000 -0.0051 0.0002
vn -0.3416 -0.3416 0.8756
vn 0.3416 -0.3416 0.8756
vn 0.8756 -0.3416 0.3416
vn 0.8756 -0.3416 -0.3416
vn 0.3416 -0.3416 -0.8756
vn -0.3416 -0.8756 0.3416
vn -0.2187 -0.9758 -0.0000
vn 0.3416 -0.8756 0.3416
vn 0.3416 -0.8756 -0.3416
vn 0.0000 -0.9759 -0.2183
vn 0.0002 -0.0051 -1.0000
vn -0.0000 -1.0000 -0.0000
vn -0.7065 0.0000 -0.7078
vn -0.7065 -0.0000 -0.7078
vn 0.0001 0.7045 -0.7097
vn 0.0000 0.9761 -0.2173
vn -0.0000 0.8959 -0.4444
vn 0.0001 0.7059 -0.7084
vn -0.0000 0.7028 -0.7114
vn -0.0000 0.8958 -0.4444
vn -0.0000 0.7069 -0.7073
vn 0.0000 1.0000 -0.0000
vn -0.0000 1.0000 -0.0000
vn -0.0001 0.7067 -0.7075
vn 0.6861 0.6861 -0.2418
vn 0.2418 0.6861 -0.6861
vn -0.2418 0.6861 -0.6861
vn -0.6861 0.6861 -0.2418
vn -0.3416 0.8756 -0.3416
vn 0.2880 0.9576 -0.0000
vn -0.2880 0.9576 -0.0000
vn 0.7071 0.7071 -0.0000
vn -0.7071 0.7071 -0.0000
# 46 vertex normals

vt 0.0198 0.0198 0.0000
vt 0.0198 0.8902 0.0000
vt 0.0052 0.8757 0.0000
vt 0.0000 0.0198 0.0000
vt 0.0198 0.0000 0.0000
vt 0.9802 0.0000 0.0000
vt 0.9802 0.0198 0.0000
vt 1.0000 0.0198 0.0000
vt 1.0000 0.9802 0.0000
vt 0.9802 0.9802 0.0000
vt 0.9802 1.0000 0.0000
vt 0.2451 0.0000 0.0000
vt 0.2451 1.0000 0.0000
vt 0.0341 1.0000 0.0000
vt 0.2520 0.0000 0.0000
vt 0.2520 1.0000 0.0000
vt 0.4902 0.0000 0.0000
vt 0.4902 1.0000 0.0000
vt 0.4971 0.0000 0.0000
vt 0.4971 1.0000 0.0000
vt 0.7353 0.0000 0.0000
vt 0.7353 1.0000 0.0000
vt 0.7422 0.0000 0.0000
vt 0.7422 1.0000 0.0000
vt 0.0198 0.9802 0.0000
vt 0.0000 0.9802 0.0000
vt 0.0000 0.1295 0.0000
vt 0.0198 0.1098 0.0000
vt 0.0198 1.0000 0.0000
vt 0.1100 0.0198 0.0000
vt 0.1298 0.0000 0.0000
vt 0.0825 0.0472 0.0000
vt 0.9705 0.0000 0.0000
vt 0.5000 0.8153 0.0000
vt 0.5684 0.8153 0.0000
vt 0.6048 0.7500 0.0000
vt 0.5000 0.7500 0.0000
vt 0.3437 0.8153 0.0000
vt 0.3075 0.7500 0.0000
vt 0.5684 0.6367 0.0000
vt 0.5000 0.6367 0.0000
vt 0.6178 0.7266 0.0000
vt 0.3437 0.6367 0.0000
vt 0.2945 0.7255 0.0000
vt 0.0000 0.8705 0.0000
vt 0.1245 0.9948 0.0000
vt 0.1100 0.9802 0.0000
vt 0.2672 0.9802 0.0000
vt 0.2776 0.9907 0.0000
vt 0.3646 0.9907 0.0000
vt 0.8708 0.9802 0.0000
vt 0.8689 0.9821 0.0000
vt 0.0825 0.9528 0.0000
vt 0.2672 0.7588 0.0000
vt 0.2776 0.7483 0.0000
vt 0.8603 0.7483 0.0000
vt 0.8708 0.7588 0.0000
vt 0.1298 1.0000 0.0000
vt 0.8603 0.9907 0.0000
vt 0.0291 0.9208 0.0000
vt 0.0455 0.9492 0.0000
vt 0.0455 0.9208 0.0000
vt 0.9545 0.9492 0.0000
vt 0.9709 0.9208 0.0000
vt 0.9545 0.9208 0.0000
vt 0.1812 0.2904 0.0000
vt 0.0455 0.2903 0.0000
vt 0.9545 0.2903 0.0000
vt 0.0291 0.3188 0.0000
vt 0.9709 0.3188 0.0000
vt 0.9679 0.3136 0.0000
# 71 texture coords

g ChamferBox001
s 1
f 1/1/1 2/2/2 3/3/3 
f 1/1/1 4/4/4 5/5/5 
f 6/6/6 7/7/7 1/1/1 
f 1/1/1 5/5/5 6/6/6 
f 7/7/7 6/6/6 8/8/8 
f 9/9/9 10/10/10 7/7/7 
f 7/7/7 8/8/8 9/9/9 
f 10/10/10 9/9/9 11/11/11 
f 12/12/12 4/13/4 13/14/13 
f 14/15/14 5/16/5 4/13/4 
f 4/13/4 12/12/12 14/15/14 
f 15/17/15 6/18/6 5/16/5 
f 5/16/5 14/15/14 15/17/15 
f 16/19/16 8/20/8 6/18/6 
f 6/18/6 15/17/15 16/19/16 
f 17/21/17 9/22/9 8/20/8 
f 8/20/8 16/19/16 17/21/17 
f 18/23/18 11/24/11 9/22/9 
f 9/22/9 17/21/17 18/23/18 
f 19/25/19 12/26/12 13/27/13 
f 13/27/13 20/28/20 19/25/19 
f 12/26/12 19/25/19 14/29/14 
f 21/10/21 15/11/15 14/29/14 
f 14/29/14 19/25/19 21/10/21 
f 15/11/15 21/10/21 16/9/16 
f 22/7/22 17/8/17 16/9/16 
f 16/9/16 21/10/21 22/7/22 
f 17/8/17 22/7/22 18/6/18 
f 22/7/22 23/30/23 24/31/24 
f 24/31/24 18/6/18 22/7/22 
f 22/7/22 21/10/21 19/25/19 
f 22/7/22 19/25/19 20/28/20 
f 22/7/22 20/28/20 25/32/25 
f 22/7/22 25/32/25 23/30/23 
f 11/24/11 18/23/18 24/33/24 
s 8
f 26/34/26 27/35/26 28/36/27 
f 28/36/27 29/37/26 26/34/26 
f 2/38/27 26/34/26 29/37/26 
f 29/37/26 3/39/26 2/38/27 
f 23/40/27 25/41/26 29/37/26 
f 29/37/26 28/36/27 24/42/27 
f 23/40/27 29/37/26 24/42/27 
f 20/43/26 13/44/26 3/39/26 
f 20/43/26 3/39/26 29/37/26 
f 25/41/26 20/43/26 29/37/26 
s 1
f 13/45/13 4/4/4 1/1/1 
f 1/1/1 3/3/3 13/45/13 
f 28/46/28 27/47/29 30/48/30 
f 28/46/28 30/48/30 31/49/31 
f 28/46/28 31/49/31 32/50/32 
f 33/51/33 10/10/10 34/52/34 
f 30/48/30 27/47/29 26/53/35 
f 26/53/35 2/2/2 1/1/1 
f 30/48/30 26/53/35 1/1/1 
f 35/54/35 30/48/30 1/1/1 
f 36/55/35 35/54/35 1/1/1 
f 36/55/35 1/1/1 7/7/7 
f 37/56/35 36/55/35 7/7/7 
f 38/57/36 37/56/35 7/7/7 
f 38/57/36 7/7/7 10/10/10 
f 38/57/36 10/10/10 33/51/33 
f 24/58/24 28/46/28 32/50/32 
f 24/58/24 32/50/32 39/59/37 
f 34/52/34 10/10/10 11/11/11 
f 39/59/37 34/52/34 11/11/11 
f 24/58/24 39/59/37 11/11/11 
s 2
f 35/60/38 36/61/39 40/62/10 
f 37/63/40 38/64/41 41/65/42 
f 40/62/10 36/61/39 37/63/40 
f 37/63/40 41/65/42 40/62/10 
f 32/66/36 31/67/43 40/62/10 
f 32/66/36 40/62/10 41/65/42 
f 39/68/44 32/66/36 41/65/42 
f 40/62/10 31/67/43 30/69/45 
f 30/69/45 35/60/38 40/62/10 
f 41/65/42 38/64/41 33/70/46 
f 41/65/42 33/70/46 34/71/46 
f 39/68/44 41/65/42 34/71/46 
# 78 faces

