# 3ds Max Wavefront OBJ Exporter v0.97b - (c)2007 guruware
# File Created: 07.04.2016 16:06:42

#
# object Cylinder001
#

v  8.3411 0.0000 -0.2911
v  3.8794 0.0000 -8.0189
v  3.8794 5.5606 -8.0189
v  8.3411 5.5606 -0.2911
v  -5.0439 0.0000 -8.0189
v  -5.0439 5.5606 -8.0189
v  -9.5056 0.0000 -0.2911
v  -9.5056 5.5606 -0.2911
v  -5.0439 0.0000 7.4367
v  -5.0439 5.5606 7.4367
v  3.8794 0.0000 7.4367
v  3.8794 5.5606 7.4367
v  4.4879 5.5606 -0.2911
v  4.3336 5.5606 0.9302
v  4.3336 5.5606 -1.5124
v  3.8804 5.5606 -2.6570
v  3.1568 5.5606 -3.6530
v  2.2083 5.5606 -4.4377
v  1.0944 5.5606 -4.9618
v  -0.1148 5.5606 -5.1925
v  -1.3434 5.5606 -5.1152
v  -2.5142 5.5606 -4.7348
v  -4.3963 5.5606 -3.1778
v  -4.9894 5.5606 -2.0990
v  -5.2955 5.5606 -0.9066
v  -5.2955 5.5606 0.3244
v  -4.9894 5.5606 1.5168
v  -4.3963 5.5606 2.5955
v  -3.5536 5.5606 3.4929
v  -2.5142 5.5606 4.1525
v  3.8804 5.5606 2.0748
v  3.1568 5.5606 3.0707
v  2.2083 5.5606 3.8554
v  1.0944 5.5606 4.3796
v  -0.1148 5.5606 4.6102
v  -1.3434 5.5606 4.5329
v  3.8804 -0.0000 2.0748
v  4.3336 -0.0000 0.9302
v  3.1568 -0.0000 3.0707
v  2.2083 -0.0000 3.8554
v  1.0944 -0.0000 4.3796
v  -0.1148 -0.0000 4.6102
v  -1.3434 -0.0000 4.5329
v  -2.5142 -0.0000 4.1525
v  -3.5536 -0.0000 3.4929
v  -4.3963 -0.0000 2.5955
v  -4.9894 -0.0000 1.5168
v  -5.2955 -0.0000 0.3244
v  -5.2955 -0.0000 -0.9066
v  -4.9894 -0.0000 -2.0990
v  -4.3963 -0.0000 -3.1778
v  -3.5542 -0.0000 -4.0745
v  -2.5142 -0.0000 -4.7348
v  -1.3434 -0.0000 -5.1152
v  -0.1148 -0.0000 -5.1925
v  1.0944 -0.0000 -4.9618
v  2.2083 -0.0000 -4.4377
v  3.1568 -0.0000 -3.6530
v  3.8804 -0.0000 -2.6570
v  4.3336 -0.0000 -1.5124
v  4.4879 0.0000 -0.2911
v  -3.5536 5.5606 -4.0751
# 62 vertices

vn 1.0000 0.0000 0.0000
vn 0.5000 0.0000 -0.8660
vn -0.5000 0.0000 -0.8660
vn -1.0000 0.0000 0.0000
vn -0.5000 0.0000 0.8660
vn 0.5000 0.0000 0.8660
vn -0.0000 1.0000 -0.0000
vn -0.0000 1.0000 0.0000
vn 0.0000 1.0000 0.0000
vn 0.0000 1.0000 -0.0000
vn 0.0000 -1.0000 0.0000
vn -0.0000 -1.0000 0.0000
vn -0.0000 -1.0000 -0.0000
vn 0.0000 -1.0000 -0.0000
vn -1.0000 -0.0000 0.0000
vn -0.9686 -0.0000 0.2487
vn -0.9686 -0.0000 -0.2487
vn -0.9686 0.0000 -0.2487
vn -0.8763 -0.0000 0.4818
vn -0.7290 -0.0000 0.6845
vn -0.5358 -0.0000 0.8443
vn -0.3090 -0.0000 0.9511
vn -0.0628 -0.0000 0.9980
vn 0.1874 -0.0000 0.9823
vn 0.4258 0.0000 0.9048
vn 0.4258 -0.0000 0.9048
vn 0.6374 0.0000 0.7705
vn 0.6375 0.0000 0.7705
vn 0.8090 0.0000 0.5878
vn 0.8090 -0.0000 0.5878
vn 0.9298 0.0000 0.3681
vn 0.9298 -0.0000 0.3681
vn 0.9921 -0.0000 0.1253
vn 0.9921 -0.0000 -0.1253
vn 0.9921 0.0000 -0.1253
vn 0.9298 0.0000 -0.3681
vn 0.8090 0.0000 -0.5878
vn 0.8090 -0.0000 -0.5878
vn 0.6374 -0.0000 -0.7705
vn 0.4258 -0.0000 -0.9048
vn 0.1874 -0.0000 -0.9823
vn -0.0628 -0.0000 -0.9980
vn -0.3090 -0.0000 -0.9511
vn -0.5358 -0.0000 -0.8443
vn -0.7290 0.0000 -0.6845
vn -0.7290 -0.0000 -0.6845
vn -0.8763 0.0000 -0.4818
# 47 vertex normals

vt 0.7500 0.0000 1.0000
vt 0.9167 0.0000 1.0000
vt 0.9167 1.0000 1.0000
vt 0.7500 1.0000 1.0000
vt 1.0833 0.0000 1.0000
vt 1.0833 1.0000 1.0000
vt 0.0833 0.0000 1.0000
vt 0.2500 0.0000 1.0000
vt 0.2500 1.0000 1.0000
vt 0.0833 1.0000 1.0000
vt 0.4167 0.0000 1.0000
vt 0.4167 1.0000 1.0000
vt 0.5833 0.0000 1.0000
vt 0.5833 1.0000 1.0000
vt 0.5000 0.7841 0.2500
vt 0.5684 0.7754 0.2500
vt 0.9330 0.7500 0.2500
vt 0.5000 1.0000 0.2500
vt 0.4316 0.7754 0.2500
vt 0.0670 0.7500 0.2500
vt 0.3674 0.7501 0.2500
vt 0.3116 0.7095 0.2500
vt 0.2677 0.6564 0.2500
vt 0.0670 0.2500 0.2500
vt 0.2383 0.5939 0.2500
vt 0.2254 0.5262 0.2500
vt 0.2297 0.4573 0.2500
vt 0.2510 0.3917 0.2500
vt 0.5000 0.0000 0.2500
vt 0.3383 0.2863 0.2500
vt 0.3987 0.2531 0.2500
vt 0.4655 0.2359 0.2500
vt 0.5345 0.2359 0.2500
vt 0.9330 0.2500 0.2500
vt 0.6013 0.2531 0.2500
vt 0.6617 0.2863 0.2500
vt 0.7120 0.3335 0.2500
vt 0.7490 0.3917 0.2500
vt 0.6326 0.7501 0.2500
vt 0.6884 0.7095 0.2500
vt 0.7323 0.6564 0.2500
vt 0.7617 0.5939 0.2500
vt 0.7746 0.5262 0.2500
vt 0.7703 0.4573 0.2500
vt 0.6326 0.7501 -0.2500
vt 0.5684 0.7754 -0.2500
vt 0.9330 0.7500 -0.2500
vt 0.6884 0.7095 -0.2500
vt 0.7323 0.6564 -0.2500
vt 0.7617 0.5939 -0.2500
vt 0.7746 0.5262 -0.2500
vt 0.7703 0.4573 -0.2500
vt 0.7490 0.3917 -0.2500
vt 0.9330 0.2500 -0.2500
vt 0.7120 0.3335 -0.2500
vt 0.6617 0.2863 -0.2500
vt 0.6013 0.2531 -0.2500
vt 0.5345 0.2359 -0.2500
vt 0.5000 0.0000 -0.2500
vt 0.4655 0.2359 -0.2500
vt 0.3987 0.2531 -0.2500
vt 0.3383 0.2863 -0.2500
vt 0.2880 0.3335 -0.2500
vt 0.0670 0.2500 -0.2500
vt 0.2510 0.3917 -0.2500
vt 0.2297 0.4573 -0.2500
vt 0.2254 0.5262 -0.2500
vt 0.2383 0.5939 -0.2500
vt 0.2677 0.6564 -0.2500
vt 0.0670 0.7500 -0.2500
vt 0.3116 0.7095 -0.2500
vt 0.3674 0.7501 -0.2500
vt 0.4316 0.7754 -0.2500
vt 0.5000 1.0000 -0.2500
vt 0.5000 0.7841 -0.2500
vt 0.7500 0.1582 1.0000
vt 0.7500 0.7192 1.0000
vt 0.7900 0.7192 1.0000
vt 0.7900 0.1582 1.0000
vt 0.7100 0.1582 1.0000
vt 0.7100 0.7192 1.0000
vt 0.8300 0.1582 1.0000
vt 0.8300 0.7192 1.0000
vt 0.8700 0.7192 1.0000
vt 0.8700 0.1582 1.0000
vt 0.9100 0.1582 1.0000
vt 0.9100 0.7192 1.0000
vt 0.9500 0.7192 1.0000
vt 0.9500 0.1582 1.0000
vt 0.9900 0.1582 1.0000
vt 0.9900 0.7192 1.0000
vt 1.0300 0.7192 1.0000
vt 1.0300 0.1582 1.0000
vt 0.0700 0.1582 1.0000
vt 0.0700 0.7192 1.0000
vt 0.1100 0.7192 1.0000
vt 0.1100 0.1582 1.0000
vt 0.0300 0.1582 1.0000
vt 0.0300 0.7192 1.0000
vt 0.1500 0.1582 1.0000
vt 0.1500 0.7192 1.0000
vt 0.1900 0.7192 1.0000
vt 0.1900 0.1582 1.0000
vt 0.2300 0.1582 1.0000
vt 0.2300 0.7192 1.0000
vt 0.2700 0.7192 1.0000
vt 0.2700 0.1582 1.0000
vt 0.3100 0.1582 1.0000
vt 0.3100 0.7192 1.0000
vt 0.3500 0.7192 1.0000
vt 0.3500 0.1582 1.0000
vt 0.3900 0.1582 1.0000
vt 0.3900 0.7192 1.0000
vt 0.4300 0.7192 1.0000
vt 0.4300 0.1582 1.0000
vt 0.4700 0.1582 1.0000
vt 0.4700 0.7192 1.0000
vt 0.5100 0.7192 1.0000
vt 0.5100 0.1582 1.0000
vt 0.5500 0.1582 1.0000
vt 0.5500 0.7192 1.0000
vt 0.5900 0.7192 1.0000
vt 0.5900 0.1582 1.0000
vt 0.6300 0.1582 1.0000
vt 0.6300 0.7192 1.0000
vt 0.6700 0.7192 1.0000
vt 0.6700 0.1582 1.0000
# 127 texture coords

g Cylinder001
s 8
f 1/1/1 2/2/2 3/3/2 
f 3/3/2 4/4/1 1/1/1 
f 2/2/2 5/5/3 6/6/3 
f 6/6/3 3/3/2 2/2/2 
f 5/7/3 7/8/4 8/9/4 
f 8/9/4 6/10/3 5/7/3 
f 7/8/4 9/11/5 10/12/5 
f 10/12/5 8/9/4 7/8/4 
f 9/11/5 11/13/6 12/14/6 
f 12/14/6 10/12/5 9/11/5 
f 11/13/6 1/1/1 4/4/1 
f 4/4/1 12/14/6 11/13/6 
s 1
f 13/15/7 14/16/7 12/17/7 
f 13/15/7 12/17/7 4/18/7 
f 15/19/8 13/15/7 4/18/7 
f 15/19/8 4/18/7 3/20/8 
f 16/21/8 15/19/8 3/20/8 
f 17/22/8 16/21/8 3/20/8 
f 18/23/8 17/22/8 3/20/8 
f 18/23/8 3/20/8 6/24/9 
f 19/25/8 18/23/8 6/24/9 
f 20/26/8 19/25/8 6/24/9 
f 21/27/9 20/26/8 6/24/9 
f 22/28/9 21/27/9 6/24/9 
f 22/28/9 6/24/9 8/29/9 
f 23/30/9 22/28/9 8/29/9 
f 24/31/9 23/30/9 8/29/9 
f 25/32/9 24/31/9 8/29/9 
f 26/33/10 25/32/9 8/29/9 
f 26/33/10 8/29/9 10/34/10 
f 27/35/10 26/33/10 10/34/10 
f 28/36/10 27/35/10 10/34/10 
f 29/37/10 28/36/10 10/34/10 
f 30/38/10 29/37/10 10/34/10 
f 30/38/10 10/34/10 12/17/7 
f 12/17/7 14/16/7 31/39/7 
f 12/17/7 31/39/7 32/40/7 
f 12/17/7 32/40/7 33/41/7 
f 12/17/7 33/41/7 34/42/7 
f 12/17/7 34/42/7 35/43/10 
f 12/17/7 35/43/10 36/44/10 
f 30/38/10 12/17/7 36/44/10 
f 37/45/11 38/46/11 11/47/11 
f 39/48/11 37/45/11 11/47/11 
f 40/49/11 39/48/11 11/47/11 
f 41/50/11 40/49/11 11/47/11 
f 42/51/12 41/50/11 11/47/11 
f 43/52/12 42/51/12 11/47/11 
f 44/53/12 43/52/12 11/47/11 
f 44/53/12 11/47/11 9/54/12 
f 45/55/12 44/53/12 9/54/12 
f 46/56/12 45/55/12 9/54/12 
f 47/57/12 46/56/12 9/54/12 
f 48/58/12 47/57/12 9/54/12 
f 48/58/12 9/54/12 7/59/12 
f 49/60/13 48/58/12 7/59/12 
f 50/61/13 49/60/13 7/59/12 
f 51/62/13 50/61/13 7/59/12 
f 52/63/13 51/62/13 7/59/12 
f 52/63/13 7/59/12 5/64/13 
f 53/65/13 52/63/13 5/64/13 
f 54/66/13 53/65/13 5/64/13 
f 55/67/14 54/66/13 5/64/13 
f 56/68/14 55/67/14 5/64/13 
f 57/69/14 56/68/14 5/64/13 
f 57/69/14 5/64/13 2/70/14 
f 58/71/14 57/69/14 2/70/14 
f 59/72/14 58/71/14 2/70/14 
f 60/73/11 59/72/14 2/70/14 
f 60/73/11 2/70/14 1/74/11 
f 61/75/11 60/73/11 1/74/11 
f 61/75/11 1/74/11 11/47/11 
f 61/75/11 11/47/11 38/46/11 
s 8
f 61/76/15 13/77/4 15/78/16 
f 15/78/16 60/79/16 61/76/15 
f 38/80/17 14/81/18 13/77/4 
f 13/77/4 61/76/15 38/80/17 
f 59/82/19 16/83/19 17/84/20 
f 17/84/20 58/85/20 59/82/19 
f 60/79/16 15/78/16 16/83/19 
f 16/83/19 59/82/19 60/79/16 
f 57/86/21 18/87/21 19/88/22 
f 19/88/22 56/89/22 57/86/21 
f 58/85/20 17/84/20 18/87/21 
f 18/87/21 57/86/21 58/85/20 
f 55/90/23 20/91/23 21/92/24 
f 21/92/24 54/93/24 55/90/23 
f 56/89/22 19/88/22 20/91/23 
f 20/91/23 55/90/23 56/89/22 
f 53/94/25 22/95/26 62/96/27 
f 62/96/27 52/97/28 53/94/25 
f 54/98/24 21/99/24 22/95/26 
f 22/95/26 53/94/25 54/98/24 
f 51/100/29 23/101/30 24/102/31 
f 24/102/31 50/103/32 51/100/29 
f 52/97/28 62/96/27 23/101/30 
f 23/101/30 51/100/29 52/97/28 
f 49/104/33 25/105/33 26/106/34 
f 26/106/34 48/107/35 49/104/33 
f 50/103/32 24/102/31 25/105/33 
f 25/105/33 49/104/33 50/103/32 
f 47/108/36 27/109/36 28/110/37 
f 28/110/37 46/111/38 47/108/36 
f 48/107/35 26/106/34 27/109/36 
f 27/109/36 47/108/36 48/107/35 
f 45/112/39 29/113/39 30/114/40 
f 30/114/40 44/115/40 45/112/39 
f 46/111/38 28/110/37 29/113/39 
f 29/113/39 45/112/39 46/111/38 
f 43/116/41 36/117/41 35/118/42 
f 35/118/42 42/119/42 43/116/41 
f 44/115/40 30/114/40 36/117/41 
f 36/117/41 43/116/41 44/115/40 
f 41/120/43 34/121/43 33/122/44 
f 33/122/44 40/123/44 41/120/43 
f 42/119/42 35/118/42 34/121/43 
f 34/121/43 41/120/43 42/119/42 
f 39/124/45 32/125/46 31/126/47 
f 31/126/47 37/127/47 39/124/45 
f 40/123/44 33/122/44 32/125/46 
f 32/125/46 39/124/45 40/123/44 
f 37/127/47 31/126/47 14/81/18 
f 14/81/18 38/80/17 37/127/47 
# 123 faces

