# 3ds Max Wavefront OBJ Exporter v0.97b - (c)2007 guruware
# File Created: 07.04.2016 16:24:38

#
# object ChamferBox001
#

v  14.5153 0.3825 -5.5166
v  14.5153 0.3825 -6.9580
v  -14.3350 0.3825 -6.9580
v  -14.3350 0.3825 -5.5166
v  -14.3350 1.4040 -7.0948
v  -14.3350 1.3949 -11.3078
v  -15.0916 0.9162 -7.0948
v  -15.0916 0.9162 9.2249
v  -14.3350 1.4040 9.2249
v  -14.3350 0.9162 9.9815
v  14.5153 0.9162 9.9815
v  14.5153 1.4040 9.2249
v  15.2718 0.9162 9.2249
v  15.2718 0.9162 -7.0948
v  14.5153 1.4040 -7.0948
v  14.5153 1.3949 -11.3078
v  -15.0916 0.4928 -7.0948
v  -14.3350 0.9715 -9.9961
v  -15.0916 0.4928 9.2249
v  -14.3350 0.4928 9.9815
v  14.5153 0.4928 9.9815
v  15.2718 0.4928 9.2249
v  15.2718 0.4928 -7.0948
v  14.5153 0.9715 -9.9961
v  -14.3350 0.0050 -7.0948
v  -14.3350 0.0050 9.2249
v  14.5153 0.0050 9.2249
v  14.5153 0.0050 -7.0948
v  14.5153 1.4004 -5.5166
v  -14.3350 1.3314 -5.5166
v  14.5153 1.4004 -6.9580
v  -14.3350 1.3314 -6.9580
# 32 vertices

vn 0.0000 1.0000 -0.0000
vn -0.5053 0.8629 -0.0020
vn -0.4837 0.2005 -0.8520
vn -0.9322 0.3578 -0.0544
vn -0.8756 0.3416 0.3416
vn -0.4606 0.7588 0.4606
vn -0.3416 0.3416 0.8756
vn 0.3416 0.3416 0.8756
vn 0.4606 0.7588 0.4606
vn 0.8756 0.3416 0.3416
vn 0.9345 0.3472 -0.0784
vn 0.5053 0.8629 -0.0020
vn 0.4962 0.1968 -0.8456
vn -0.9050 -0.4005 -0.1433
vn -0.3440 -0.8378 -0.4239
vn -0.8756 -0.3416 0.3416
vn -0.3416 -0.3416 0.8756
vn 0.3416 -0.3416 0.8756
vn 0.8756 -0.3416 0.3416
vn 0.9072 -0.3898 -0.1582
vn 0.4864 -0.7754 -0.4028
vn -0.3588 -0.9089 -0.2127
vn -0.3416 -0.8756 0.3416
vn 0.3416 -0.8756 0.3416
vn 0.3588 -0.9089 -0.2127
vn 0.0000 1.0000 -0.0004
vn -0.0037 1.0000 -0.0076
vn -1.0000 0.0000 -0.0000
vn 0.0000 0.7724 0.6352
vn -0.0037 0.9992 0.0403
vn 0.0000 0.0000 -1.0000
vn -0.0000 0.0000 1.0000
# 32 vertex normals

vt 0.9751 0.0376 0.0000
vt 0.9751 0.9624 0.0000
vt 0.0249 0.9624 0.0000
vt 0.0249 0.0376 0.0000
vt 0.0249 1.0000 0.0000
vt 0.0000 0.9624 0.0000
vt 0.0000 0.0376 0.0000
vt 0.0249 0.0000 0.0000
vt 0.9751 0.0000 0.0000
vt 1.0000 0.0376 0.0000
vt 1.0000 0.9624 0.0000
vt 0.9751 1.0000 0.0000
vt 0.0105 0.0000 0.0000
vt 0.0105 1.0000 0.0000
vt 0.0000 1.0000 0.0000
vt 0.0000 0.0000 0.0000
vt 0.1926 0.0000 0.0000
vt 0.1926 1.0000 0.0000
vt 0.2031 0.0000 0.0000
vt 0.2031 1.0000 0.0000
vt 0.4852 0.0000 0.0000
vt 0.4852 1.0000 0.0000
vt 0.4957 0.0000 0.0000
vt 0.4957 1.0000 0.0000
vt 0.6778 0.0000 0.0000
vt 0.6778 1.0000 0.0000
vt 0.6883 0.0000 0.0000
vt 0.6883 1.0000 0.0000
vt 1.0000 0.0000 0.0000
vt 1.0000 1.0000 0.0000
# 30 texture coords

g ChamferBox001
s 1
f 1/1/1 2/2/1 3/3/1 
f 3/3/1 4/4/1 1/1/1 
f 5/3/2 6/5/3 7/6/4 
f 8/7/5 9/4/6 5/3/2 
f 5/3/2 7/6/4 8/7/5 
f 9/4/6 8/7/5 10/8/7 
f 11/9/8 12/1/9 9/4/6 
f 9/4/6 10/8/7 11/9/8 
f 12/1/9 11/9/8 13/10/10 
f 14/11/11 15/2/12 12/1/9 
f 12/1/9 13/10/10 14/11/11 
f 15/2/12 14/11/11 16/12/13 
f 6/5/3 5/3/2 15/2/12 
f 15/2/12 16/12/13 6/5/3 
f 17/13/14 7/14/4 6/15/3 
f 6/15/3 18/16/15 17/13/14 
f 19/17/16 8/18/5 7/14/4 
f 7/14/4 17/13/14 19/17/16 
f 20/19/17 10/20/7 8/18/5 
f 8/18/5 19/17/16 20/19/17 
f 21/21/18 11/22/8 10/20/7 
f 10/20/7 20/19/17 21/21/18 
f 22/23/19 13/24/10 11/22/8 
f 11/22/8 21/21/18 22/23/19 
f 23/25/20 14/26/11 13/24/10 
f 13/24/10 22/23/19 23/25/20 
f 24/27/21 16/28/13 14/26/11 
f 14/26/11 23/25/20 24/27/21 
f 18/29/15 6/30/3 16/28/13 
f 16/28/13 24/27/21 18/29/15 
f 18/8/15 25/4/22 17/7/14 
f 26/3/23 19/6/16 17/7/14 
f 17/7/14 25/4/22 26/3/23 
f 19/6/16 26/3/23 20/5/17 
f 27/2/24 21/12/18 20/5/17 
f 20/5/17 26/3/23 27/2/24 
f 21/12/18 27/2/24 22/11/19 
f 28/1/25 23/10/20 22/11/19 
f 22/11/19 27/2/24 28/1/25 
f 23/10/20 28/1/25 24/9/21 
f 25/4/22 18/8/15 24/9/21 
f 24/9/21 28/1/25 25/4/22 
f 26/3/23 25/4/22 28/1/25 
f 28/1/25 27/2/24 26/3/23 
s off
f 9/4/26 12/1/26 29/1/26 
f 29/1/27 30/4/27 9/4/27 
f 12/1/28 15/2/28 31/2/28 
f 31/2/28 29/1/28 12/1/28 
f 15/2/29 5/3/29 32/3/29 
f 32/3/30 31/2/30 15/2/30 
f 30/4/31 29/1/31 1/1/31 
f 1/1/31 4/4/31 30/4/31 
f 29/1/28 31/2/28 2/2/28 
f 2/2/28 1/1/28 29/1/28 
f 31/2/32 32/3/32 3/3/32 
f 3/3/32 2/2/32 31/2/32 
# 56 faces

